<?xml version="1.0" standalone="no"?>
<!DOCTYPE svg PUBLIC "-//W3C//DTD SVG 20010904//EN"
 "http://www.w3.org/TR/2001/REC-SVG-20010904/DTD/svg10.dtd">
<svg version="1.0" xmlns="http://www.w3.org/2000/svg"
 width="200.000000pt" height="200.000000pt" viewBox="0 0 200.000000 200.000000"
 preserveAspectRatio="xMidYMid meet">

<g transform="translate(0.000000,200.000000) scale(0.100000,-0.100000)"
fill="#000000" stroke="none">
<path d="M1348 1493 c6 -2 18 -2 25 0 6 3 1 5 -13 5 -14 0 -19 -2 -12 -5z"/>
<path d="M1237 1431 c-34 -32 -69 -61 -77 -64 -13 -5 -13 -6 0 -6 9 -1 38 22
65 50 28 28 64 57 80 65 20 9 24 13 12 14 -10 0 -46 -26 -80 -59z"/>
<path d="M1350 1440 c-73 -79 -82 -92 -69 -101 8 -4 -8 -18 -42 -38 -30 -16
-72 -48 -93 -70 -31 -32 -43 -38 -53 -29 -11 8 -20 5 -42 -16 -18 -17 -31 -24
-35 -17 -4 7 -14 4 -26 -7 -72 -65 -116 -75 -162 -37 -16 14 -33 25 -37 25 -4
0 -11 19 -17 43 -7 35 -15 45 -49 62 -39 20 -40 21 -34 63 3 23 2 42 -2 42
-15 0 -90 -96 -114 -146 -13 -27 -29 -80 -36 -115 -32 -173 66 -361 230 -442
62 -30 71 -32 181 -32 110 0 119 2 180 32 36 18 85 53 110 79 25 26 39 44 32
40 -8 -5 -22 2 -37 18 -18 20 -34 26 -64 26 -22 0 -43 -5 -47 -11 -3 -6 -14 2
-26 21 -10 18 -27 34 -38 37 -10 3 -20 15 -23 26 -3 12 -10 39 -15 59 -9 34
-7 42 19 74 15 20 48 53 72 74 l43 38 32 -20 31 -20 25 27 c18 19 27 43 31 83
7 53 12 62 67 119 55 55 61 66 66 112 2 28 1 50 -4 50 -5 -1 -29 -23 -54 -49z
m-250 -255 c11 -13 9 -20 -9 -38 -11 -13 -21 -29 -21 -37 0 -15 -47 -63 -80
-80 -30 -16 -50 -6 -43 22 9 35 66 112 75 103 3 -3 15 6 28 20 27 29 33 30 50
10z m-420 -29 c0 -3 -4 -8 -10 -11 -5 -3 -10 -1 -10 4 0 6 5 11 10 11 6 0 10
-2 10 -4z m27 -172 c-9 -9 -28 6 -21 18 4 6 10 6 17 -1 6 -6 8 -13 4 -17z m93
-67 c12 -4 11 -6 -2 -6 -10 -1 -18 -5 -18 -10 0 -5 -11 -4 -24 2 l-24 11 22
11 c11 6 23 8 26 5 3 -4 12 -10 20 -13z"/>
<path d="M880 1393 c0 -7 -8 -13 -17 -14 -14 0 -15 -2 -3 -6 8 -3 18 -11 22
-17 5 -8 8 -7 8 2 0 6 10 13 23 13 20 1 20 2 2 6 -11 3 -23 10 -27 17 -6 8 -8
7 -8 -1z"/>
<path d="M1042 1333 c-15 -16 -18 -20 -6 -10 12 10 34 22 50 27 25 7 26 8 7 9
-13 1 -35 -11 -51 -26z"/>
<path d="M1033 1267 c15 -23 14 -26 -11 -53 l-27 -29 32 29 c30 27 31 30 16
52 -8 13 -18 24 -20 24 -3 0 2 -11 10 -23z"/>
<path d="M880 1179 c0 -5 5 -7 10 -4 6 3 10 8 10 11 0 2 -4 4 -10 4 -5 0 -10
-5 -10 -11z"/>
<path d="M964 475 c1 -46 5 -60 16 -61 8 0 10 1 3 3 -7 3 -14 29 -16 61 l-3
57 0 -60z"/>
<path d="M1022 478 c-2 -59 0 -68 16 -68 11 0 13 3 5 8 -6 4 -14 34 -16 67
l-3 60 -2 -67z"/>
<path d="M1191 478 l-1 -68 28 1 c23 2 24 2 5 6 -19 4 -23 11 -23 38 0 27 4
34 23 38 22 4 22 4 0 6 -14 1 -23 9 -26 24 -2 12 -5 -8 -6 -45z"/>
<path d="M662 470 c21 -56 37 -76 39 -47 0 6 8 30 18 52 l18 40 17 -53 c10
-28 21 -52 25 -52 4 0 17 27 29 60 12 34 17 58 12 55 -5 -3 -15 -24 -21 -45
-7 -22 -15 -40 -19 -40 -3 0 -13 18 -21 41 -8 22 -19 41 -24 41 -5 0 -16 -19
-24 -41 -8 -23 -18 -41 -21 -41 -4 0 -13 18 -20 41 -8 22 -17 42 -22 45 -4 3
2 -22 14 -56z"/>
<path d="M888 493 c28 -3 42 -9 42 -19 0 -10 -12 -14 -45 -14 -45 0 -50 -5
-39 -34 4 -11 19 -16 50 -16 l44 0 0 45 0 45 -47 -2 -48 -1 43 -4z m42 -58 c0
-16 -64 -22 -74 -6 -9 14 5 21 41 21 23 0 33 -5 33 -15z"/>
<path d="M1070 455 l0 -45 48 2 47 1 -42 4 c-58 6 -60 33 -3 33 36 0 40 3 40
25 0 23 -4 25 -45 25 l-45 0 0 -45z m80 20 c0 -10 -11 -15 -35 -15 -24 0 -35
5 -35 15 0 10 11 15 35 15 24 0 35 -5 35 -15z"/>
<path d="M1299 493 l43 -4 -41 -30 c-22 -17 -41 -35 -41 -40 0 -5 24 -8 53 -7
l52 2 -48 3 -48 4 45 35 c25 19 46 37 46 39 0 3 -24 4 -52 3 -52 -1 -52 -2 -9
-5z"/>
</g>
</svg>
